<svg width="32" height="32" viewBox="0 0 32 32" fill="none" xmlns="http://www.w3.org/2000/svg">
<path fill-rule="evenodd" clip-rule="evenodd" d="M8.1508 22.3637C7.76028 22.7543 7.76028 23.3874 8.1508 23.778C8.54133 24.1685 9.17449 24.1685 9.56502 23.778L8.85791 23.0708L9.56506 23.7779L9.5652 23.7778L9.56543 23.7775L9.56575 23.7772L9.56615 23.7768L9.56665 23.7763L9.56724 23.7757L9.56792 23.775L9.56869 23.7743L9.56955 23.7734L9.57049 23.7725L9.57153 23.7714L9.57265 23.7703L9.57386 23.7691L9.57516 23.7678L9.57655 23.7664L9.57803 23.7649L9.57959 23.7634L9.58124 23.7617L9.58298 23.76L9.5848 23.7582L9.58671 23.7563L9.58871 23.7543L9.59079 23.7522L9.59296 23.75L9.59522 23.7478L9.59756 23.7454L9.59998 23.743L9.60249 23.7405L9.60509 23.7379L9.60776 23.7352L9.61053 23.7324L9.61337 23.7296L9.6163 23.7267L9.61932 23.7237L9.62241 23.7206L9.62559 23.7174L9.62886 23.7141L9.6322 23.7108L9.63563 23.7073L9.63914 23.7038L9.64273 23.7002L9.6464 23.6966L9.65016 23.6928L9.65399 23.689L9.65791 23.6851L9.66191 23.6811L9.66599 23.677L9.67014 23.6728L9.67438 23.6686L9.6787 23.6643L9.6831 23.6599L9.68757 23.6554L9.69213 23.6508L9.69676 23.6462L9.70147 23.6415L9.70627 23.6367L9.71113 23.6318L9.71608 23.6269L9.72111 23.6219L9.72621 23.6168L9.73139 23.6116L9.73664 23.6063L9.74198 23.601L9.74739 23.5956L9.75287 23.5901L9.75843 23.5845L9.76407 23.5789L9.76979 23.5732L9.77557 23.5674L9.78144 23.5615L9.78738 23.5556L9.79339 23.5496L9.79948 23.5435L9.80564 23.5373L9.81187 23.5311L9.81818 23.5248L9.82457 23.5184L9.83102 23.5119L9.83755 23.5054L9.84415 23.4988L9.85083 23.4921L9.85757 23.4854L9.86439 23.4786L9.87128 23.4717L9.87825 23.4647L9.88528 23.4577L9.89238 23.4506L9.89956 23.4434L9.90681 23.4362L9.91412 23.4288L9.92151 23.4215L9.92897 23.414L9.93649 23.4065L9.94409 23.3989L9.95175 23.3912L9.95949 23.3835L9.96729 23.3757L9.97516 23.3678L9.9831 23.3599L9.99111 23.3519L9.99919 23.3438L10.0073 23.3356L10.0155 23.3274L10.0238 23.3191L10.0322 23.3108L10.0406 23.3024L10.0491 23.2939L10.0576 23.2854L10.0662 23.2768L10.0749 23.2681L10.0836 23.2593L10.0924 23.2505L10.1013 23.2417L10.1103 23.2327L10.1193 23.2237L10.1283 23.2146L10.1375 23.2055L10.1466 23.1963L10.1559 23.1871L10.1652 23.1777L10.1746 23.1684L10.1841 23.1589L10.1936 23.1494L10.2031 23.1398L10.2128 23.1302L10.2225 23.1205L10.2322 23.1107L10.2421 23.1009L10.2519 23.091L10.2619 23.0811L10.2719 23.0711L10.282 23.061L10.2921 23.0509L10.3023 23.0407L10.3125 23.0304L10.3228 23.0201L10.3332 23.0098L10.3436 22.9994L10.3541 22.9889L10.3646 22.9783L10.3752 22.9677L10.3859 22.9571L10.3966 22.9463L10.4074 22.9356L10.4182 22.9247L10.4291 22.9138L10.4401 22.9029L10.4511 22.8919L10.4621 22.8808L10.4733 22.8697L10.4844 22.8585L10.4957 22.8473L10.5069 22.836L10.5183 22.8247L10.5297 22.8133L10.5411 22.8018L10.5526 22.7903L10.5642 22.7788L10.5758 22.7671L10.5875 22.7555L10.5992 22.7437L10.611 22.732L10.6228 22.7201L10.6347 22.7083L10.6467 22.6963L10.6586 22.6843L10.6707 22.6723L10.6828 22.6602L10.6949 22.648L10.7071 22.6358L10.7194 22.6236L10.7317 22.6113L10.744 22.5989L10.7564 22.5865L10.7689 22.5741L10.7814 22.5616L10.794 22.549L10.8066 22.5364L10.8192 22.5237L10.8319 22.511L10.8447 22.4983L10.8575 22.4855L10.8703 22.4726L10.8832 22.4597L10.8962 22.4468L10.9092 22.4338L10.9222 22.4207L10.9353 22.4076L10.9485 22.3945L10.9617 22.3813L10.9749 22.3681L10.9882 22.3548L11.0015 22.3415L11.0149 22.3281L11.0283 22.3147L11.0418 22.3012L11.0553 22.2877L11.0688 22.2741L11.0824 22.2605L11.0961 22.2469L11.1098 22.2332L11.1235 22.2195L11.1373 22.2057L11.1511 22.1919L11.165 22.178L11.1789 22.1641L11.1928 22.1501L11.2068 22.1361L11.2209 22.1221L11.235 22.108L11.2491 22.0939L11.2633 22.0797L11.2775 22.0655L11.2917 22.0513L11.306 22.037L11.3203 22.0226L11.3347 22.0082L11.3491 21.9938L11.3636 21.9794L11.3781 21.9649L11.3926 21.9503L11.4072 21.9358L11.4218 21.9212L11.4365 21.9065L11.4512 21.8918L11.4659 21.8771L11.4807 21.8623L11.4955 21.8475L11.5103 21.8326L11.5252 21.8178L11.5401 21.8028L11.5551 21.7879L11.5701 21.7729L11.5851 21.7578L11.6002 21.7428L11.6153 21.7277L11.6305 21.7125L11.6456 21.6973L11.6608 21.6821L11.6761 21.6669L11.6914 21.6516L11.7067 21.6363L11.7221 21.6209L11.7375 21.6055L11.7529 21.5901L11.7683 21.5746L11.7838 21.5591L11.7994 21.5436L11.8149 21.528L11.8305 21.5124L11.8462 21.4968L11.8618 21.4812L11.8775 21.4655L11.8932 21.4497L11.909 21.434L11.9248 21.4182L11.9406 21.4024L11.9565 21.3865L11.9723 21.3706L11.9883 21.3547L12.0042 21.3388L12.0202 21.3228L12.0362 21.3068L12.0522 21.2908L12.0683 21.2747L12.0844 21.2586L12.1005 21.2425L12.1167 21.2263L12.1328 21.2101L12.1491 21.1939L12.1653 21.1777L12.1816 21.1614L12.1979 21.1451L12.2142 21.1288L12.2305 21.1124L12.2469 21.0961L12.2633 21.0797L12.2797 21.0632L12.2962 21.0468L12.3127 21.0303L12.3292 21.0138L12.3457 20.9972L12.3623 20.9807L12.3789 20.9641L12.3955 20.9475L12.4121 20.9308L12.4288 20.9142L12.4455 20.8975L12.4622 20.8808L12.4789 20.864L12.4957 20.8473L12.5125 20.8305L12.5293 20.8137L12.5461 20.7969L12.563 20.78L12.5798 20.7631L12.5967 20.7462L12.6136 20.7293L12.6306 20.7124L12.6475 20.6954L12.6645 20.6784L12.6815 20.6614L12.6986 20.6444L12.7156 20.6274L12.7327 20.6103L12.7498 20.5932L12.7669 20.5761L12.784 20.559L12.8011 20.5418L12.8183 20.5247L12.8355 20.5075L12.8527 20.4903L12.8699 20.4731L12.8872 20.4558L12.9044 20.4386L12.9217 20.4213L12.939 20.404L12.9563 20.3867L12.9736 20.3693L12.991 20.352L13.0083 20.3346L13.0257 20.3173L13.0431 20.2999L13.0605 20.2825L13.0779 20.265L13.0954 20.2476L13.1128 20.2301L13.1303 20.2127L13.1478 20.1952L13.1653 20.1777L13.1828 20.1601L13.2004 20.1426L13.2179 20.1251L13.2355 20.1075L13.253 20.0899L13.2706 20.0723L13.2882 20.0548L13.3058 20.0371L13.3235 20.0195L13.3411 20.0019L13.3587 19.9842L13.3764 19.9666L13.3941 19.9489L13.4118 19.9312L13.4295 19.9135L13.4472 19.8958L13.4649 19.8781L13.4826 19.8604L13.5003 19.8426L13.5181 19.8249L13.5358 19.8071L13.5536 19.7894L13.5714 19.7716L13.5892 19.7538L13.607 19.736L13.6248 19.7182L13.6426 19.7004L13.6604 19.6826L13.6782 19.6647L13.6961 19.6469L13.7139 19.6291L13.7318 19.6112L13.7496 19.5934L13.7675 19.5755L13.7853 19.5576L13.8032 19.5397L13.8211 19.5219L13.839 19.504L13.8569 19.4861L13.8748 19.4682L13.8927 19.4503L13.9106 19.4324L13.9285 19.4145L13.9464 19.3965L13.9644 19.3786L13.9823 19.3607L14.0002 19.3428L14.0181 19.3248L14.0361 19.3069L14.054 19.2889L14.072 19.271L14.0899 19.2531L14.1079 19.2351L14.1258 19.2172L14.1438 19.1992L14.1617 19.1813L14.1797 19.1633L14.1976 19.1453L14.2156 19.1274L14.2335 19.1094L14.2515 19.0915L14.2695 19.0735L14.2874 19.0556L14.3054 19.0376L14.3233 19.0196L14.3413 19.0017L14.3592 18.9837L14.3772 18.9658L14.3952 18.9478L14.4131 18.9299L14.4311 18.9119L14.449 18.894L14.467 18.876L14.4849 18.8581L14.5028 18.8401L14.5208 18.8222L14.5387 18.8043L14.5566 18.7863L14.5746 18.7684L14.5925 18.7505L14.6104 18.7326L14.6283 18.7146L14.6462 18.6967L14.6641 18.6788L14.682 18.6609L14.6999 18.643L14.7178 18.6251L14.7357 18.6073L14.7536 18.5894L14.7715 18.5715L14.7893 18.5536L14.8072 18.5358L14.825 18.5179L14.8429 18.5001L14.8607 18.4823L14.8785 18.4644L14.8964 18.4466L14.9142 18.4288L14.932 18.411L14.9498 18.3932L14.9676 18.3754L14.9853 18.3576L15.0031 18.3399L15.0209 18.3221L15.0386 18.3043L15.0564 18.2866L15.0741 18.2689L15.0918 18.2512L15.1095 18.2334L15.1272 18.2157L15.1449 18.1981L15.1626 18.1804L15.1802 18.1627L15.1979 18.1451L15.2155 18.1274L15.2332 18.1098L15.2508 18.0922L15.2684 18.0746L15.286 18.057L15.3035 18.0394L15.3211 18.0219L15.3387 18.0043L15.3562 17.9868L15.3737 17.9693L15.3912 17.9517L15.4087 17.9343L15.4262 17.9168L15.4437 17.8993L15.4611 17.8819L15.4785 17.8644L15.4959 17.847L15.5133 17.8296L15.5307 17.8122L15.5481 17.7949L15.5654 17.7775L15.5828 17.7602L15.6001 17.7429L15.6174 17.7256L15.6347 17.7083L15.6519 17.691L15.6692 17.6738L15.6864 17.6566L15.7036 17.6394L15.7208 17.6222L15.738 17.605L15.7551 17.5878L15.7723 17.5707L15.7894 17.5536L15.8065 17.5365L15.8235 17.5194L15.8406 17.5024L15.8576 17.4854L15.8746 17.4684L15.8916 17.4514L15.9086 17.4344L15.9255 17.4175L15.929 17.414L19.6543 21.1394L21.5336 23.0187L22.0907 23.5757L22.2408 23.7258L22.2797 23.7647L22.2896 23.7746L22.2921 23.7771L22.2927 23.7777L22.2929 23.7779L23 23.0708L22.2929 23.778C22.6835 24.1685 23.3166 24.1685 23.7072 23.778C24.0977 23.3874 24.0977 22.7543 23.7072 22.3637L23 23.0708L23.7071 22.3637L23.7069 22.3635L23.7063 22.3629L23.7038 22.3604L23.6939 22.3505L23.655 22.3116L23.5049 22.1615L22.9479 21.6044L21.0686 19.7251L17.3432 15.9998L17.3477 15.9953L17.3659 15.977L17.3842 15.9588L17.4025 15.9405L17.4208 15.9222L17.4391 15.9039L17.4575 15.8855L17.4758 15.8671L17.4942 15.8487L17.5126 15.8303L17.5311 15.8119L17.5496 15.7934L17.568 15.7749L17.5865 15.7564L17.6051 15.7379L17.6236 15.7193L17.6422 15.7008L17.6608 15.6822L17.6794 15.6636L17.698 15.645L17.7167 15.6263L17.7353 15.6076L17.754 15.589L17.7727 15.5703L17.7914 15.5515L17.8102 15.5328L17.8289 15.514L17.8477 15.4953L17.8665 15.4765L17.8853 15.4577L17.9041 15.4389L17.923 15.42L17.9418 15.4012L17.9607 15.3823L17.9796 15.3634L17.9985 15.3445L18.0174 15.3256L18.0363 15.3067L18.0553 15.2877L18.0742 15.2688L18.0932 15.2498L18.1122 15.2308L18.1312 15.2118L18.1502 15.1928L18.1692 15.1738L18.1882 15.1548L18.2073 15.1357L18.2263 15.1166L18.2454 15.0976L18.2645 15.0785L18.2836 15.0594L18.3027 15.0403L18.3218 15.0212L18.3409 15.0021L18.36 14.983L18.3792 14.9638L18.3983 14.9447L18.4175 14.9255L18.4366 14.9064L18.4558 14.8872L18.475 14.868L18.4942 14.8488L18.5133 14.8296L18.5325 14.8104L18.5518 14.7912L18.571 14.772L18.5902 14.7528L18.6094 14.7336L18.6286 14.7143L18.6479 14.6951L18.6671 14.6758L18.6864 14.6566L18.7056 14.6373L18.7249 14.6181L18.7441 14.5988L18.7634 14.5796L18.7827 14.5603L18.8019 14.541L18.8212 14.5218L18.8405 14.5025L18.8597 14.4832L18.879 14.4639L18.8983 14.4447L18.9176 14.4254L18.9369 14.4061L18.9561 14.3868L18.9754 14.3675L18.9947 14.3483L19.014 14.329L19.0333 14.3097L19.0525 14.2904L19.0718 14.2711L19.0911 14.2519L19.1104 14.2326L19.1296 14.2133L19.1489 14.194L19.1682 14.1748L19.1875 14.1555L19.2067 14.1363L19.226 14.117L19.2452 14.0977L19.2645 14.0785L19.2837 14.0592L19.303 14.04L19.3222 14.0208L19.3414 14.0015L19.3607 13.9823L19.3799 13.9631L19.3991 13.9439L19.4183 13.9246L19.4375 13.9054L19.4567 13.8862L19.4759 13.8671L19.4951 13.8479L19.5143 13.8287L19.5334 13.8095L19.5526 13.7904L19.5718 13.7712L19.5909 13.7521L19.61 13.7329L19.6292 13.7138L19.6483 13.6947L19.6674 13.6756L19.6865 13.6565L19.7055 13.6374L19.7246 13.6184L19.7437 13.5993L19.7627 13.5802L19.7818 13.5612L19.8008 13.5422L19.8198 13.5232L19.8388 13.5042L19.8578 13.4852L19.8768 13.4662L19.8957 13.4472L19.9147 13.4283L19.9336 13.4093L19.9525 13.3904L19.9714 13.3715L19.9903 13.3526L20.0092 13.3338L20.0281 13.3149L20.0469 13.296L20.0658 13.2772L20.0846 13.2584L20.1034 13.2396L20.1221 13.2208L20.1409 13.2021L20.1597 13.1833L20.1784 13.1646L20.1971 13.1459L20.2158 13.1272L20.2345 13.1085L20.2531 13.0899L20.2717 13.0712L20.2904 13.0526L20.309 13.034L20.3275 13.0154L20.3461 12.9969L20.3646 12.9783L20.3831 12.9598L20.4016 12.9413L20.4201 12.9229L20.4386 12.9044L20.457 12.886L20.4754 12.8676L20.4938 12.8492L20.5122 12.8308L20.5305 12.8125L20.5488 12.7942L20.5671 12.7759L20.5854 12.7576L20.6036 12.7394L20.6218 12.7211L20.64 12.7029L20.6582 12.6848L20.6763 12.6666L20.6945 12.6485L20.7126 12.6304L20.7306 12.6123L20.7487 12.5943L20.7667 12.5763L20.7847 12.5583L20.8026 12.5403L20.8206 12.5224L20.8385 12.5045L20.8563 12.4866L20.8742 12.4688L20.892 12.451L20.9098 12.4332L20.9276 12.4154L20.9453 12.3977L20.963 12.38L20.9807 12.3623L20.9983 12.3447L21.0159 12.3271L21.0335 12.3095L21.051 12.2919L21.0686 12.2744L21.086 12.2569L21.1035 12.2395L21.1209 12.2221L21.1383 12.2047L21.1556 12.1873L21.173 12.17L21.1903 12.1527L21.2075 12.1355L21.2247 12.1182L21.2419 12.1011L21.2591 12.0839L21.2762 12.0668L21.2933 12.0497L21.3103 12.0327L21.3273 12.0157L21.3443 11.9987L21.3612 11.9818L21.3781 11.9649L21.395 11.948L21.4118 11.9312L21.4286 11.9144L21.4453 11.8976L21.462 11.8809L21.4787 11.8643L21.4954 11.8476L21.5119 11.831L21.5285 11.8145L21.545 11.798L21.5615 11.7815L21.5779 11.765L21.5943 11.7486L21.6107 11.7323L21.627 11.716L21.6433 11.6997L21.6595 11.6835L21.6757 11.6673L21.6918 11.6511L21.7079 11.635L21.724 11.619L21.74 11.6029L21.756 11.587L21.7719 11.571L21.7878 11.5552L21.8037 11.5393L21.8195 11.5235L21.8352 11.5078L21.8509 11.492L21.8666 11.4764L21.8822 11.4608L21.8978 11.4452L21.9133 11.4297L21.9288 11.4142L21.9442 11.3987L21.9596 11.3834L21.975 11.368L21.9902 11.3527L22.0055 11.3375L22.0207 11.3223L22.0358 11.3071L22.0509 11.292L22.066 11.277L22.081 11.262L22.0959 11.247L22.1108 11.2321L22.1257 11.2173L22.1405 11.2025L22.1552 11.1877L22.1699 11.173L22.1846 11.1584L22.1992 11.1438L22.2137 11.1292L22.2282 11.1147L22.2427 11.1003L22.257 11.0859L22.2714 11.0716L22.2857 11.0573L22.2999 11.0431L22.3141 11.0289L22.3282 11.0148L22.3423 11.0007L22.3563 10.9867L22.3702 10.9727L22.3841 10.9588L22.398 10.945L22.4118 10.9312L22.4255 10.9175L22.4392 10.9038L22.4528 10.8902L22.4664 10.8766L22.4799 10.8631L22.4933 10.8497L22.5067 10.8363L22.52 10.8229L22.5333 10.8097L22.5465 10.7965L22.5597 10.7833L22.5728 10.7702L22.5858 10.7572L22.5988 10.7442L22.6117 10.7313L22.6246 10.7184L22.6374 10.7056L22.6501 10.6929L22.6628 10.6802L22.6754 10.6676L22.6879 10.655L22.7004 10.6425L22.7129 10.6301L22.7252 10.6178L22.7375 10.6055L22.7498 10.5932L22.7619 10.581L22.774 10.5689L22.7861 10.5569L22.7981 10.5449L22.81 10.533L22.8218 10.5211L22.8336 10.5093L22.8454 10.4976L22.857 10.486L22.8686 10.4744L22.8801 10.4628L22.8916 10.4514L22.903 10.44L22.9143 10.4287L22.9255 10.4174L22.9367 10.4062L22.9479 10.3951L22.9589 10.3841L22.9699 10.3731L22.9808 10.3622L22.9916 10.3513L23.0024 10.3405L23.0131 10.3298L23.0238 10.3192L23.0343 10.3086L23.0448 10.2981L23.0552 10.2877L23.0656 10.2774L23.0759 10.2671L23.0861 10.2569L23.0962 10.2467L23.1063 10.2367L23.1163 10.2267L23.1262 10.2168L23.136 10.2069L23.1458 10.1972L23.1555 10.1875L23.1651 10.1778L23.1747 10.1683L23.1842 10.1588L23.1936 10.1494L23.2029 10.1401L23.2121 10.1308L23.2213 10.1217L23.2304 10.1126L23.2394 10.1035L23.2484 10.0946L23.2572 10.0857L23.266 10.0769L23.2747 10.0682L23.2834 10.0596L23.2919 10.051L23.3004 10.0426L23.3088 10.0341L23.3171 10.0258L23.3254 10.0176L23.3335 10.0094L23.3416 10.0013L23.3496 9.99334L23.3576 9.98541L23.3654 9.97757L23.3732 9.96981L23.3808 9.96213L23.3884 9.95453L23.396 9.94702L23.4034 9.93958L23.4107 9.93223L23.418 9.92496L23.4252 9.91777L23.4323 9.91067L23.4393 9.90365L23.4463 9.89671L23.4531 9.88986L23.4599 9.88309L23.4666 9.87641L23.4732 9.86981L23.4797 9.86329L23.4861 9.85687L23.4924 9.85052L23.4987 9.84427L23.5049 9.8381L23.511 9.83201L23.517 9.82602L23.5229 9.82011L23.5287 9.81429L23.5344 9.80855L23.5401 9.80291L23.5456 9.79735L23.5511 9.79188L23.5565 9.7865L23.5618 9.78121L23.567 9.77601L23.5721 9.7709L23.5771 9.76587L23.582 9.76094L23.5869 9.7561L23.5916 9.75135L23.5963 9.74669L23.6008 9.74213L23.6053 9.73765L23.6097 9.73327L23.614 9.72897L23.6182 9.72478L23.6223 9.72067L23.6263 9.71666L23.6302 9.71274L23.6341 9.70891L23.6378 9.70518L23.6414 9.70155L23.645 9.698L23.6484 9.69455L23.6518 9.6912L23.655 9.68794L23.6582 9.68478L23.6613 9.68172L23.6642 9.67875L23.6671 9.67588L23.6699 9.6731L23.6725 9.67042L23.6751 9.66784L23.6776 9.66536L23.68 9.66297L23.6823 9.66069L23.6845 9.6585L23.6866 9.65641L23.6886 9.65442L23.6904 9.65253L23.6922 9.65074L23.6939 9.64904L23.6955 9.64745L23.697 9.64596L23.6984 9.64457L23.6997 9.64329L23.7009 9.6421L23.702 9.64101L23.7029 9.64003L23.7038 9.63915L23.7046 9.63837L23.7053 9.63769L23.7058 9.63712L23.7063 9.63665L23.7067 9.63629L23.7069 9.63603L23.7071 9.63587L23 8.92871L23.7072 9.63582C24.0977 9.24529 24.0977 8.61213 23.7072 8.2216C23.3166 7.83108 22.6835 7.83108 22.2929 8.2216L23 8.92871L22.2929 8.22166L22.2927 8.22181L22.2925 8.22207L22.2921 8.22244L22.2916 8.22291L22.2911 8.22348L22.2904 8.22416L22.2896 8.22494L22.2887 8.22582L22.2877 8.2268L22.2867 8.22788L22.2855 8.22907L22.2842 8.23036L22.2828 8.23175L22.2813 8.23324L22.2797 8.23483L22.278 8.23652L22.2762 8.23831L22.2743 8.2402L22.2723 8.24219L22.2703 8.24428L22.2681 8.24647L22.2658 8.24876L22.2634 8.25114L22.2609 8.25363L22.2583 8.25621L22.2557 8.25889L22.2529 8.26166L22.25 8.26454L22.247 8.2675L22.244 8.27057L22.2408 8.27373L22.2376 8.27699L22.2342 8.28034L22.2308 8.28379L22.2272 8.28733L22.2236 8.29097L22.2198 8.2947L22.216 8.29853L22.2121 8.30245L22.2081 8.30646L22.204 8.31056L22.1998 8.31476L22.1955 8.31905L22.1911 8.32344L22.1866 8.32791L22.1821 8.33248L22.1774 8.33714L22.1727 8.34189L22.1678 8.34673L22.1629 8.35166L22.1579 8.35668L22.1527 8.36179L22.1475 8.367L22.1423 8.37229L22.1369 8.37767L22.1314 8.38314L22.1258 8.38869L22.1202 8.39434L22.1145 8.40007L22.1086 8.4059L22.1027 8.4118L22.0967 8.4178L22.0907 8.42388L22.0845 8.43005L22.0782 8.43631L22.0719 8.44265L22.0655 8.44908L22.0589 8.45559L22.0524 8.46219L22.0457 8.46888L22.0389 8.47565L22.032 8.4825L22.0251 8.48943L22.0181 8.49645L22.011 8.50356L22.0038 8.51074L21.9965 8.51801L21.9892 8.52537L21.9817 8.5328L21.9742 8.54032L21.9666 8.54792L21.9589 8.5556L21.9512 8.56336L21.9433 8.5712L21.9354 8.57912L21.9274 8.58713L21.9193 8.59521L21.9112 8.60337L21.9029 8.61161L21.8946 8.61994L21.8862 8.62834L21.8777 8.63682L21.8692 8.64537L21.8605 8.65401L21.8518 8.66272L21.843 8.67151L21.8342 8.68038L21.8252 8.68932L21.8162 8.69835L21.8071 8.70744L21.7979 8.71662L21.7887 8.72587L21.7794 8.73519L21.7699 8.74459L21.7605 8.75407L21.7509 8.76362L21.7413 8.77324L21.7316 8.78294L21.7218 8.79271L21.712 8.80256L21.7021 8.81248L21.6921 8.82247L21.682 8.83253L21.6719 8.84267L21.6617 8.85288L21.6514 8.86316L21.641 8.87351L21.6306 8.88394L21.6201 8.89443L21.6095 8.90499L21.5989 8.91563L21.5882 8.92633L21.5774 8.93711L21.5666 8.94795L21.5557 8.95887L21.5447 8.96985L21.5336 8.9809L21.5225 8.99202L21.5113 9.00321L21.5001 9.01446L21.4888 9.02579L21.4774 9.03718L21.4659 9.04863L21.4544 9.06016L21.4428 9.07175L21.4311 9.08341L21.4194 9.09513L21.4076 9.10691L21.3958 9.11877L21.3839 9.13069L21.3719 9.14267L21.3598 9.15472L21.3477 9.16683L21.3355 9.179L21.3233 9.19124L21.311 9.20354L21.2986 9.2159L21.2862 9.22833L21.2737 9.24082L21.2612 9.25337L21.2486 9.26599L21.2359 9.27866L21.2231 9.2914L21.2104 9.30419L21.1975 9.31705L21.1846 9.32997L21.1716 9.34295L21.1586 9.35598L21.1455 9.36908L21.1323 9.38224L21.1191 9.39545L21.1058 9.40873L21.0925 9.42206L21.0791 9.43545L21.0656 9.4489L21.0521 9.46241L21.0386 9.47597L21.025 9.48959L21.0113 9.50327L20.9975 9.517L20.9838 9.53079L20.9699 9.54463L20.956 9.55854L20.9421 9.57249L20.928 9.5865L20.914 9.60057L20.8999 9.61469L20.8857 9.62886L20.8715 9.64309L20.8572 9.65737L20.8428 9.67171L20.8284 9.68609L20.814 9.70053L20.7995 9.71503L20.785 9.72957L20.7704 9.74417L20.7557 9.75882L20.741 9.77352L20.7263 9.78827L20.7115 9.80307L20.6966 9.81792L20.6817 9.83282L20.6668 9.84777L20.6518 9.86277L20.6367 9.87782L20.6216 9.89292L20.6065 9.90807L20.5913 9.92327L20.576 9.93851L20.5607 9.9538L20.5454 9.96914L20.53 9.98453L20.5146 9.99997L20.4991 10.0154L20.4836 10.031L20.468 10.0465L20.4524 10.0622L20.4367 10.0778L20.421 10.0935L20.4052 10.1093L20.3894 10.1251L20.3736 10.1409L20.3577 10.1568L20.3418 10.1728L20.3258 10.1887L20.3098 10.2048L20.2937 10.2208L20.2776 10.2369L20.2615 10.2531L20.2453 10.2693L20.2291 10.2855L20.2128 10.3018L20.1965 10.3181L20.1801 10.3344L20.1637 10.3508L20.1473 10.3673L20.1308 10.3837L20.1143 10.4003L20.0977 10.4168L20.0811 10.4334L20.0645 10.45L20.0478 10.4667L20.0311 10.4834L20.0144 10.5002L19.9976 10.517L19.9808 10.5338L19.9639 10.5506L19.947 10.5675L19.9301 10.5845L19.9131 10.6014L19.8961 10.6185L19.879 10.6355L19.862 10.6526L19.8448 10.6697L19.8277 10.6868L19.8105 10.704L19.7933 10.7212L19.776 10.7385L19.7588 10.7558L19.7414 10.7731L19.7241 10.7905L19.7067 10.8078L19.6893 10.8253L19.6718 10.8427L19.6543 10.8602L19.6368 10.8777L19.6193 10.8953L19.6017 10.9128L19.5841 10.9305L19.5664 10.9481L19.5488 10.9658L19.5311 10.9835L19.5133 11.0012L19.4956 11.019L19.4778 11.0368L19.46 11.0546L19.4421 11.0724L19.4242 11.0903L19.4063 11.1082L19.3884 11.1261L19.3705 11.1441L19.3525 11.1621L19.3345 11.1801L19.3164 11.1981L19.2983 11.2162L19.2802 11.2343L19.2621 11.2524L19.244 11.2706L19.2258 11.2887L19.2076 11.3069L19.1894 11.3251L19.1712 11.3434L19.1529 11.3617L19.1346 11.3799L19.1163 11.3983L19.0979 11.4166L19.0796 11.435L19.0612 11.4534L19.0428 11.4718L19.0244 11.4902L19.0059 11.5086L18.9874 11.5271L18.9689 11.5456L18.9504 11.5641L18.9319 11.5827L18.9133 11.6012L18.8947 11.6198L18.8762 11.6384L18.8575 11.657L18.8389 11.6756L18.8202 11.6943L18.8016 11.713L18.7829 11.7317L18.7642 11.7504L18.7454 11.7691L18.7267 11.7879L18.7079 11.8066L18.6891 11.8254L18.6704 11.8442L18.6515 11.863L18.6327 11.8818L18.6139 11.9007L18.595 11.9195L18.5761 11.9384L18.5572 11.9573L18.5383 11.9762L18.5194 11.9951L18.5005 12.0141L18.4815 12.033L18.4626 12.052L18.4436 12.071L18.4246 12.0899L18.4056 12.1089L18.3866 12.128L18.3676 12.147L18.3485 12.166L18.3295 12.1851L18.3104 12.2041L18.2913 12.2232L18.2722 12.2423L18.2532 12.2614L18.2341 12.2805L18.2149 12.2996L18.1958 12.3187L18.1767 12.3379L18.1575 12.357L18.1384 12.3762L18.1192 12.3953L18.1001 12.4145L18.0809 12.4337L18.0617 12.4528L18.0425 12.472L18.0233 12.4912L18.0041 12.5104L17.9849 12.5296L17.9657 12.5489L17.9465 12.5681L17.9272 12.5873L17.908 12.6065L17.8888 12.6258L17.8695 12.645L17.8503 12.6643L17.831 12.6835L17.8118 12.7028L17.7925 12.722L17.7732 12.7413L17.754 12.7606L17.7347 12.7798L17.7154 12.7991L17.6962 12.8184L17.6769 12.8377L17.6576 12.8569L17.6383 12.8762L17.6191 12.8955L17.5998 12.9148L17.5805 12.9341L17.5612 12.9533L17.5419 12.9726L17.5226 12.9919L17.5034 13.0112L17.4841 13.0305L17.4648 13.0497L17.4455 13.069L17.4263 13.0883L17.407 13.1076L17.3877 13.1268L17.3684 13.1461L17.3492 13.1654L17.3299 13.1846L17.3107 13.2039L17.2914 13.2231L17.2722 13.2424L17.2529 13.2616L17.2337 13.2809L17.2144 13.3001L17.1952 13.3193L17.176 13.3386L17.1568 13.3578L17.1375 13.377L17.1183 13.3962L17.0991 13.4154L17.0799 13.4346L17.0608 13.4538L17.0416 13.473L17.0224 13.4921L17.0032 13.5113L16.9841 13.5305L16.9649 13.5496L16.9458 13.5687L16.9267 13.5879L16.9076 13.607L16.8884 13.6261L16.8693 13.6452L16.8503 13.6643L16.8312 13.6834L16.8121 13.7024L16.7931 13.7215L16.774 13.7405L16.755 13.7596L16.736 13.7786L16.7169 13.7976L16.6979 13.8166L16.679 13.8356L16.66 13.8545L16.641 13.8735L16.6221 13.8924L16.6032 13.9114L16.5843 13.9303L16.5654 13.9492L16.5465 13.9681L16.5276 13.9869L16.5087 14.0058L16.4899 14.0246L16.4711 14.0435L16.4523 14.0623L16.4335 14.0811L16.4147 14.0998L16.396 14.1186L16.3772 14.1373L16.3585 14.156L16.3398 14.1747L16.3211 14.1934L16.3024 14.2121L16.2838 14.2307L16.2652 14.2494L16.2466 14.268L16.228 14.2866L16.2094 14.3051L16.1909 14.3237L16.1723 14.3422L16.1538 14.3607L16.1353 14.3792L16.1169 14.3977L16.0984 14.4161L16.08 14.4345L16.0616 14.4529L16.0432 14.4713L16.0249 14.4897L16.0066 14.508L15.9883 14.5263L15.97 14.5446L15.9517 14.5628L15.9335 14.5811L15.929 14.5856L11.909 10.5656L10.2322 8.88883L9.74198 8.39856L9.61053 8.26711L9.57655 8.23314L9.56792 8.22451L9.56575 8.22233L9.5652 8.22179L9.56506 8.22165L8.85791 8.92871L9.56502 8.2216C9.17449 7.83108 8.54133 7.83108 8.1508 8.2216C7.76028 8.61213 7.76028 9.24529 8.1508 9.63582L8.85791 8.92871L8.15085 9.63586L8.15099 9.636L8.15153 9.63655L8.15371 9.63872L8.16234 9.64735L8.19631 9.68133L8.32776 9.81278L8.81803 10.303L10.4948 11.9798L14.5148 15.9998L14.5113 16.0032L14.4944 16.0202L14.4774 16.0372L14.4604 16.0541L14.4434 16.0711L14.4264 16.0882L14.4093 16.1052L14.3922 16.1223L14.3752 16.1394L14.358 16.1565L14.3409 16.1736L14.3238 16.1908L14.3066 16.208L14.2894 16.2251L14.2722 16.2424L14.255 16.2596L14.2377 16.2768L14.2205 16.2941L14.2032 16.3114L14.1859 16.3287L14.1686 16.346L14.1512 16.3633L14.1339 16.3807L14.1165 16.398L14.0991 16.4154L14.0817 16.4328L14.0643 16.4502L14.0469 16.4677L14.0294 16.4851L14.012 16.5026L13.9945 16.52L13.977 16.5375L13.9595 16.555L13.942 16.5726L13.9244 16.5901L13.9069 16.6076L13.8893 16.6252L13.8718 16.6428L13.8542 16.6604L13.8366 16.678L13.819 16.6956L13.8013 16.7132L13.7837 16.7309L13.766 16.7485L13.7484 16.7662L13.7307 16.7838L13.713 16.8015L13.6953 16.8192L13.6776 16.8369L13.6599 16.8547L13.6422 16.8724L13.6244 16.8901L13.6067 16.9079L13.5889 16.9256L13.5711 16.9434L13.5534 16.9612L13.5356 16.979L13.5178 16.9968L13.5 17.0146L13.4822 17.0324L13.4643 17.0502L13.4465 17.068L13.4287 17.0859L13.4108 17.1037L13.393 17.1216L13.3751 17.1394L13.3572 17.1573L13.3394 17.1752L13.3215 17.193L13.3036 17.2109L13.2857 17.2288L13.2678 17.2467L13.2499 17.2646L13.232 17.2825L13.2141 17.3004L13.1962 17.3183L13.1783 17.3363L13.1604 17.3542L13.1424 17.3721L13.1245 17.39L13.1066 17.408L13.0886 17.4259L13.0707 17.4439L13.0527 17.4618L13.0348 17.4798L13.0168 17.4977L12.9989 17.5156L12.9809 17.5336L12.963 17.5516L12.945 17.5695L12.9271 17.5875L12.9091 17.6054L12.8912 17.6234L12.8732 17.6413L12.8552 17.6593L12.8373 17.6773L12.8193 17.6952L12.8014 17.7132L12.7834 17.7311L12.7655 17.7491L12.7475 17.767L12.7295 17.785L12.7116 17.8029L12.6936 17.8209L12.6757 17.8388L12.6578 17.8568L12.6398 17.8747L12.6219 17.8927L12.6039 17.9106L12.586 17.9285L12.5681 17.9465L12.5501 17.9644L12.5322 17.9823L12.5143 18.0002L12.4964 18.0182L12.4785 18.0361L12.4606 18.054L12.4427 18.0719L12.4248 18.0898L12.4069 18.1077L12.389 18.1255L12.3711 18.1434L12.3533 18.1613L12.3354 18.1791L12.3175 18.197L12.2997 18.2148L12.2819 18.2327L12.264 18.2505L12.2462 18.2684L12.2284 18.2862L12.2106 18.304L12.1928 18.3218L12.175 18.3396L12.1572 18.3574L12.1394 18.3751L12.1216 18.3929L12.1039 18.4107L12.0861 18.4284L12.0684 18.4462L12.0507 18.4639L12.0329 18.4816L12.0152 18.4993L11.9975 18.517L11.9799 18.5347L11.9622 18.5524L11.9445 18.57L11.9269 18.5877L11.9092 18.6053L11.8916 18.6229L11.874 18.6405L11.8564 18.6581L11.8388 18.6757L11.8212 18.6933L11.8037 18.7109L11.7861 18.7284L11.7686 18.7459L11.7511 18.7634L11.7336 18.781L11.7161 18.7984L11.6986 18.8159L11.6812 18.8334L11.6637 18.8508L11.6463 18.8682L11.6289 18.8857L11.6115 18.903L11.5941 18.9204L11.5768 18.9378L11.5594 18.9551L11.5421 18.9725L11.5248 18.9898L11.5075 19.0071L11.4902 19.0243L11.4729 19.0416L11.4557 19.0588L11.4385 19.0761L11.4213 19.0933L11.4041 19.1105L11.3869 19.1276L11.3698 19.1448L11.3527 19.1619L11.3355 19.179L11.3185 19.1961L11.3014 19.2132L11.2843 19.2302L11.2673 19.2472L11.2503 19.2642L11.2333 19.2812L11.2164 19.2982L11.1994 19.3151L11.1825 19.332L11.1656 19.3489L11.1487 19.3658L11.1319 19.3827L11.1151 19.3995L11.0983 19.4163L11.0815 19.4331L11.0647 19.4498L11.048 19.4666L11.0313 19.4833L11.0146 19.5L10.9979 19.5166L10.9813 19.5333L10.9647 19.5499L10.9481 19.5665L10.9315 19.583L10.915 19.5996L10.8985 19.6161L10.882 19.6326L10.8655 19.649L10.8491 19.6654L10.8327 19.6819L10.8163 19.6982L10.8 19.7146L10.7836 19.7309L10.7673 19.7472L10.7511 19.7635L10.7348 19.7797L10.7186 19.7959L10.7024 19.8121L10.6863 19.8283L10.6702 19.8444L10.6541 19.8605L10.638 19.8765L10.622 19.8926L10.606 19.9086L10.59 19.9246L10.574 19.9405L10.5581 19.9564L10.5422 19.9723L10.5264 19.9882L10.5106 20.004L10.4948 20.0198L10.479 20.0355L10.4633 20.0513L10.4476 20.0669L10.4319 20.0826L10.4163 20.0982L10.4007 20.1138L10.3852 20.1294L10.3696 20.1449L10.3541 20.1604L10.3387 20.1759L10.3232 20.1913L10.3079 20.2067L10.2925 20.222L10.2772 20.2374L10.2619 20.2527L10.2466 20.2679L10.2314 20.2831L10.2162 20.2983L10.2011 20.3135L10.186 20.3286L10.1709 20.3436L10.1559 20.3587L10.1409 20.3737L10.1259 20.3886L10.111 20.4035L10.0961 20.4184L10.0813 20.4333L10.0665 20.4481L10.0517 20.4629L10.0369 20.4776L10.0223 20.4923L10.0076 20.5069L9.99299 20.5216L9.97841 20.5361L9.96387 20.5507L9.94938 20.5652L9.93492 20.5796L9.92051 20.594L9.90613 20.6084L9.8918 20.6227L9.87751 20.637L9.86326 20.6513L9.84905 20.6655L9.83488 20.6797L9.82075 20.6938L9.80667 20.7079L9.79263 20.7219L9.77863 20.7359L9.76468 20.7499L9.75076 20.7638L9.7369 20.7776L9.72307 20.7915L9.70929 20.8053L9.69556 20.819L9.68186 20.8327L9.66822 20.8463L9.65461 20.8599L9.64106 20.8735L9.62755 20.887L9.61408 20.9005L9.60066 20.9139L9.58728 20.9273L9.57396 20.9406L9.56067 20.9539L9.54744 20.9671L9.53425 20.9803L9.52111 20.9934L9.50802 21.0065L9.49497 21.0196L9.48198 21.0326L9.46903 21.0455L9.45612 21.0584L9.44327 21.0713L9.43047 21.0841L9.41771 21.0968L9.40501 21.1095L9.39235 21.1222L9.37975 21.1348L9.36719 21.1474L9.35468 21.1599L9.34223 21.1723L9.32982 21.1847L9.31747 21.1971L9.30517 21.2094L9.29292 21.2216L9.28072 21.2338L9.26857 21.246L9.25647 21.2581L9.24443 21.2701L9.23244 21.2821L9.2205 21.294L9.20862 21.3059L9.19679 21.3178L9.18501 21.3295L9.17328 21.3413L9.16161 21.3529L9.15 21.3645L9.13843 21.3761L9.12693 21.3876L9.11547 21.3991L9.10408 21.4105L9.09273 21.4218L9.08145 21.4331L9.07022 21.4443L9.05904 21.4555L9.04792 21.4666L9.03686 21.4777L9.02586 21.4887L9.01491 21.4996L9.00402 21.5105L8.99319 21.5214L8.98241 21.5321L8.97169 21.5429L8.96103 21.5535L8.95043 21.5641L8.93989 21.5747L8.9294 21.5851L8.91898 21.5956L8.90861 21.6059L8.89831 21.6162L8.88806 21.6265L8.87787 21.6367L8.86775 21.6468L8.85768 21.6569L8.84768 21.6669L8.83773 21.6768L8.82785 21.6867L8.81803 21.6965L8.80827 21.7063L8.79857 21.716L8.78894 21.7256L8.77936 21.7352L8.76985 21.7447L8.7604 21.7541L8.75102 21.7635L8.74169 21.7728L8.73244 21.7821L8.72324 21.7913L8.71411 21.8004L8.70504 21.8095L8.69604 21.8185L8.6871 21.8274L8.67823 21.8363L8.66942 21.8451L8.66068 21.8539L8.652 21.8625L8.64339 21.8712L8.63485 21.8797L8.62637 21.8882L8.61796 21.8966L8.60961 21.9049L8.60133 21.9132L8.59312 21.9214L8.58498 21.9296L8.5769 21.9376L8.56889 21.9457L8.56095 21.9536L8.55308 21.9615L8.54528 21.9693L8.53754 21.977L8.52988 21.9847L8.52228 21.9923L8.51475 21.9998L8.5073 22.0072L8.49991 22.0146L8.49259 22.022L8.48535 22.0292L8.47817 22.0364L8.47107 22.0435L8.46403 22.0505L8.45707 22.0575L8.45018 22.0644L8.44336 22.0712L8.43661 22.0779L8.42994 22.0846L8.42334 22.0912L8.41681 22.0977L8.41035 22.1042L8.40397 22.1106L8.39766 22.1169L8.39143 22.1231L8.38526 22.1293L8.37918 22.1354L8.37316 22.1414L8.36722 22.1473L8.36136 22.1532L8.35557 22.159L8.34986 22.1647L8.34422 22.1703L8.33866 22.1759L8.33317 22.1814L8.32776 22.1868L8.32243 22.1921L8.31717 22.1974L8.312 22.2025L8.30689 22.2077L8.30187 22.2127L8.29692 22.2176L8.29205 22.2225L8.28726 22.2273L8.28255 22.232L8.27791 22.2366L8.27336 22.2412L8.26888 22.2457L8.26448 22.2501L8.26017 22.2544L8.25593 22.2586L8.25177 22.2628L8.24769 22.2668L8.2437 22.2708L8.23978 22.2748L8.23594 22.2786L8.23219 22.2824L8.22852 22.286L8.22493 22.2896L8.22142 22.2931L8.21799 22.2966L8.21464 22.2999L8.21138 22.3032L8.2082 22.3063L8.2051 22.3094L8.20209 22.3125L8.19916 22.3154L8.19631 22.3182L8.19355 22.321L8.19087 22.3237L8.18828 22.3263L8.18577 22.3288L8.18334 22.3312L8.181 22.3335L8.17875 22.3358L8.17658 22.338L8.1745 22.34L8.1725 22.342L8.17059 22.344L8.16877 22.3458L8.16703 22.3475L8.16538 22.3492L8.16382 22.3507L8.16234 22.3522L8.16095 22.3536L8.15965 22.3549L8.15844 22.3561L8.15731 22.3572L8.15628 22.3583L8.15533 22.3592L8.15448 22.3601L8.15371 22.3608L8.15303 22.3615L8.15244 22.3621L8.15194 22.3626L8.15153 22.363L8.15121 22.3633L8.15099 22.3636L8.15085 22.3637L8.85791 23.0708L8.1508 22.3637Z" fill="#404040"/>
</svg>
